<svg xmlns="http://www.w3.org/2000/svg" width="24.006" height="19.31" viewBox="0 0 24.006 19.31" fill="#666666">
  <path id="Icon_simple-coffeescript" data-name="Icon simple-coffeescript" d="M4.64,7.47a33.553,33.553,0,0,0,8.01.8,33.093,33.093,0,0,0,8.01-.8c2.23-.52,3.3-1.22,3.3-1.88,0-.47-.48-.93-1.35-1.28a.73.73,0,0,1,.35.59c0,.67-1.01,1.22-3.04,1.68a34.021,34.021,0,0,1-7.2.7A35.158,35.158,0,0,1,5.58,6.6c-1.95-.48-2.97-1-2.97-1.68,0-.28.13-.52.52-.8-1.22.47-1.88.87-1.88,1.47.07.68,1.16,1.36,3.39,1.88ZM9.33,5.31c2.27-.2,2.93-1.66,5.59-1.9,1.31-.1,2.14.16,2.23.62.08.43-.57.72-1.36.78-1.09.11-1.54-.28-1.63-.65-.81.09-.94.43-.9.67.09.46,1.07.92,2.75.76,1.9-.15,2.54-.9,2.38-1.65-.2-.98-1.66-1.8-4.28-1.55-3.36.3-3.34,1.86-5.63,2.05-.94.09-1.46-.13-1.55-.5-.06-.37.4-.55.94-.59a2.826,2.826,0,0,1,1.4.2c.21-.11.28-.22.26-.35-.1-.35-.79-.5-1.66-.44-1.7.15-1.7.91-1.64,1.25.17.87,1.48,1.45,3.1,1.3ZM20.75,9.15a35.692,35.692,0,0,1-8.01.81,37.761,37.761,0,0,1-8.08-.8C2.78,8.68,1.78,8.15,1.43,7.6a18.826,18.826,0,0,0,.89,3.55,4.917,4.917,0,0,0-1.3,1.17A4.52,4.52,0,0,0,0,15.42a3.6,3.6,0,0,0,1.42,2.62,3.4,3.4,0,0,0,2.88.68,9.676,9.676,0,0,0,1.29-.42,3.614,3.614,0,0,1-2.36-.87,3.55,3.55,0,0,1-1.49-2.42,3.227,3.227,0,0,1,.53-2.58,2.957,2.957,0,0,1,.39-.4,22.844,22.844,0,0,0,.98,2.12c.81,1.23,1.62,2.3,2.43,3.46a8.844,8.844,0,0,1,.74,2.02,3.9,3.9,0,0,0,2.23,1.5,9.235,9.235,0,0,0,3.58.51h.13a10.2,10.2,0,0,0,3.69-.52,4.18,4.18,0,0,0,2.16-1.49h.07a8.549,8.549,0,0,1,.67-2.02c.8-1.17,1.62-2.23,2.42-3.46A21,21,0,0,0,24,7.61C23.57,8.21,22.56,8.74,20.75,9.15Z" transform="translate(0.006 -2.345)"/>
</svg>
