<svg xmlns="http://www.w3.org/2000/svg" width="24" height="18.726" viewBox="0 0 24 18.726" fill="#666666">
  <path id="Icon_simple-cakephp" data-name="Icon simple-cakephp" d="M0,13.875V17.62c0,2.067,5.37,3.743,12,3.743V17.62c-6.63,0-12-1.68-12-3.743v0Zm21.384,2.333L12,13.875V17.62l9.384,2.333C23.02,19.313,24,18.5,24,17.62V13.875C24,14.757,23.02,15.567,21.384,16.208ZM12,10.133v3.742c-6.627,0-12-1.677-12-3.744V6.38C0,4.316,5.37,2.637,12,2.637s12,1.68,12,3.744v3.75c0,.883-.98,1.69-2.616,2.334L12,10.13Z" transform="translate(0 -2.637)"/>
</svg>
