<svg xmlns="http://www.w3.org/2000/svg" width="24.119" height="24.119" viewBox="0 0 24.119 24.119">
  <path id="Path_40" data-name="Path 40" d="M12,2c3.2,0,3.8-.133,5,0,1.2,0,1.6.867,2,1,.533.267.6.6,1,1s.733.467,1,1c.133.4,1,.8,1,2v5c0,3.2.133,3.8,0,5,0,1.2-.867,1.6-1,2-.267.533-.6.6-1,1s-.467.733-1,1c-.4.133-.8,1-2,1H12c-3.2,0-3.8.133-5,0-1.2,0-1.6-.867-2-1-.533-.267-.6-.6-1-1s-.733-.467-1-1c-.133-.4-1-.8-1-2V12c0-3.2-.133-3.8,0-5,0-1.2.867-1.6,1-2,.267-.533.6-.6,1-1,.4-.533.467-.867,1-1,.4-.133.8-1,2-1,1.2-.133,1.8,0,5,0m0-2C8.8,0,8.2-.133,7,0A7.907,7.907,0,0,0,4,1,4.07,4.07,0,0,0,2,2,4.07,4.07,0,0,0,1,4,6.136,6.136,0,0,0,0,7c-.133,1.2,0,1.8,0,5s-.133,3.8,0,5a7.907,7.907,0,0,0,1,3,4.07,4.07,0,0,0,1,2,4.07,4.07,0,0,0,2,1,7.907,7.907,0,0,0,3,1c1.2.133,1.8,0,5,0s3.8.133,5,0a7.907,7.907,0,0,0,3-1,4.07,4.07,0,0,0,2-1,4.07,4.07,0,0,0,1-2,7.907,7.907,0,0,0,1-3V12c0-3.2.133-3.8,0-5a7.907,7.907,0,0,0-1-3,4.07,4.07,0,0,0-1-2,4.07,4.07,0,0,0-2-1,7.907,7.907,0,0,0-3-1c-1.2-.133-1.8,0-5,0m0,6a5.815,5.815,0,0,0-6,6,5.893,5.893,0,0,0,6,6,5.893,5.893,0,0,0,6-6,5.893,5.893,0,0,0-6-6m0,10a3.929,3.929,0,0,1-4-4,3.929,3.929,0,0,1,4-4,3.929,3.929,0,0,1,4,4,3.929,3.929,0,0,1-4,4M18,4c-.8,0-1,1.2-1,2s.2,1,1,1,2-.2,2-1a2.569,2.569,0,0,0-2-2" transform="translate(0.059 0.059)" fill="#fff" fill-rule="evenodd"/>
</svg>
