<svg xmlns="http://www.w3.org/2000/svg" xmlns:xlink="http://www.w3.org/1999/xlink" viewBox="0 0 151.51 47.43">
    <path d="M34.508,12.418a12.742,12.742,0,0,1-.617,3.773,13.634,13.634,0,0,1-1.76,3.664,10.34,10.34,0,0,1-2.769,2.769,6.278,6.278,0,0,1-3.578,1.089,4.07,4.07,0,0,1-1.37-.251,4.337,4.337,0,0,1-1.261-.7,3.714,3.714,0,0,1-.921-1.092,2.846,2.846,0,0,1-.363-1.426,2.421,2.421,0,0,1,.363-1.231A1.344,1.344,0,0,1,23.49,18.4l2.294.5a3.292,3.292,0,0,0,1.872-.5,3.718,3.718,0,0,0,1.2-1.287,5.793,5.793,0,0,0,.644-1.733,8.726,8.726,0,0,0,.2-1.789,10.464,10.464,0,0,0-.868-4.334,9.578,9.578,0,0,0-2.377-3.271,10.322,10.322,0,0,0-3.578-2.043,13.984,13.984,0,0,0-4.476-.7,12.234,12.234,0,0,0-3.717.558,9.1,9.1,0,0,0-3.076,1.65,7.6,7.6,0,0,0-2.07,2.74,9.16,9.16,0,0,0-.756,3.832A7.78,7.78,0,0,0,12.3,18.848q1.957,1.284,4.532,2.766a38.072,38.072,0,0,1,4.866,3.33,19.842,19.842,0,0,1,3.888,4.136A9,9,0,0,1,27.18,34.34a12.569,12.569,0,0,1-.865,4.615,12.415,12.415,0,0,1-2.406,3.885,11.835,11.835,0,0,1-3.634,2.684,10.536,10.536,0,0,1-4.615,1.007,11.982,11.982,0,0,1-2.852-.337,8.311,8.311,0,0,1-2.515-1.033A5.436,5.436,0,0,1,8.5,43.371a4.984,4.984,0,0,1-.67-2.654,5.29,5.29,0,0,1,.531-2.294A1.7,1.7,0,0,1,9.956,37.3c.337,0,.623.272.868.812a12.558,12.558,0,0,0,1.033,1.816A6.855,6.855,0,0,0,13.7,41.751a5.759,5.759,0,0,0,3.3.812,8.137,8.137,0,0,0,1.819-.2,4.573,4.573,0,0,0,1.538-.644,3.4,3.4,0,0,0,1.089-1.2,3.836,3.836,0,0,0,.419-1.875,4.906,4.906,0,0,0-1.624-3.634,23.338,23.338,0,0,0-4.054-3.047q-2.431-1.484-5.255-3.05a35.266,35.266,0,0,1-5.258-3.549A18.344,18.344,0,0,1,1.624,20.75,11.666,11.666,0,0,1,0,14.485,11.391,11.391,0,0,1,1.763,8.137,15.436,15.436,0,0,1,6.292,3.608,20.79,20.79,0,0,1,12.474.895,26.5,26.5,0,0,1,19.185,0a16.985,16.985,0,0,1,5.173.868,17.88,17.88,0,0,1,4.978,2.489,13.993,13.993,0,0,1,3.717,3.915A9.413,9.413,0,0,1,34.508,12.418Z" transform="translate(0 0)" fill="#121e11"></path>
    <path d="M36.319,28.089c-.856.856-1.78,1.7-2.766,2.515a18.449,18.449,0,0,1-3.106,2.1,6.825,6.825,0,0,1-3.245.868,2.3,2.3,0,0,1-1.816-.895A5.574,5.574,0,0,1,24.35,31a7.373,7.373,0,0,1-2.179,1.647,6.407,6.407,0,0,1-3.02.7,7.206,7.206,0,0,1-3.637-.895,8.7,8.7,0,0,1-2.6-2.235,10.156,10.156,0,0,1-1.565-2.882,8.7,8.7,0,0,1-.531-2.823,25.864,25.864,0,0,1,.785-6.546,15.174,15.174,0,0,1,2.43-5.258A12.071,12.071,0,0,1,18.2,9.158a13.366,13.366,0,0,1,6.038-1.373,2.263,2.263,0,0,0,.9-.165c.26-.112.52-.233.782-.363a6.464,6.464,0,0,1,.895-.363,3.905,3.905,0,0,1,1.228-.168c.263,0,.605.009,1.036.027a5.365,5.365,0,0,1,1.228.2,2.505,2.505,0,0,1,.98.5,1.261,1.261,0,0,1,.393,1.007q-.115,4.252-.28,9.032t-.446,10.6c0,.148.035.224.109.224a2.739,2.739,0,0,0,1.175-.561q.841-.558,1.819-1.284c.652-.484,1.287-.954,1.9-1.4a8.731,8.731,0,0,1,1.426-.895l1.228,1.845A25.23,25.23,0,0,0,36.319,28.089ZM24.182,21.546V17.658q0-2.321-.053-6.516c0-.3-.224-.475-.673-.528a8.736,8.736,0,0,0-1.119-.086,2.815,2.815,0,0,0-2.208.838,5.265,5.265,0,0,0-1.119,2.182,13.115,13.115,0,0,0-.419,2.964c-.035,1.081-.056,2.143-.056,3.189,0,.892.038,1.91.112,3.047a13.661,13.661,0,0,0,.588,3.215,7.327,7.327,0,0,0,1.343,2.545,2.928,2.928,0,0,0,2.377,1.033.938.938,0,0,0,.838-.334,3.294,3.294,0,0,0,.39-.951Z" transform="translate(21.118 13.13)" fill="#121e11"></path>
    <path d="M45.018,14.16c-.393.077-.8.142-1.231.2s-.833.109-1.2.168a6.057,6.057,0,0,1-.782.083,12.411,12.411,0,0,1-1.565-.112,9.964,9.964,0,0,1-1.789-.393,28.808,28.808,0,0,1-1.435,5.509,36.781,36.781,0,0,1-2.527,5.539,33.991,33.991,0,0,1-3.316,4.892,20.552,20.552,0,0,1-3.735,3.634h-.957q-.443-.669-.806-1.284c-.239-.41-.49-.8-.747-1.175q-1.833-2.852-2.944-4.81a19.881,19.881,0,0,1-1.721-3.944,22.068,22.068,0,0,1-.83-4.529q-.226-2.542-.221-6.572a8.8,8.8,0,0,1,.221-2.126,2.743,2.743,0,0,1,.915-1.479,4.562,4.562,0,0,1,2.025-.868,18.024,18.024,0,0,1,3.552-.28,2.263,2.263,0,0,1,1,.251.77.77,0,0,1,.5.7c-.221,1.3-.41,2.628-.558,3.971a36.631,36.631,0,0,0-.224,4.083,26.628,26.628,0,0,0,.7,6.123,16.673,16.673,0,0,0,2.681,5.79.235.235,0,0,0,.168.053q.394,0,1.042-1.146a18.632,18.632,0,0,0,1.27-2.879,34.3,34.3,0,0,0,1.1-3.8,17.368,17.368,0,0,0,.478-3.862,7.1,7.1,0,0,0-.5-2.793,6.387,6.387,0,0,1-.393-2.238A2.341,2.341,0,0,1,33.551,9.6a4.3,4.3,0,0,1,2.294-1.789,4.747,4.747,0,0,1,1.538-.254.546.546,0,0,1,.393.168,1.45,1.45,0,0,1,.278.393,1.9,1.9,0,0,1,.28.558,8.52,8.52,0,0,1,.224,1.426c.035.5.056,1.11.056,1.819a13.723,13.723,0,0,0,1.565.307,11.67,11.67,0,0,0,1.621.139,6.739,6.739,0,0,0,.812-.083c.393-.056.8-.121,1.231-.2s.839-.156,1.231-.251a4.255,4.255,0,0,0,.809-.251v2.4C45.7,14.03,45.408,14.087,45.018,14.16Z" transform="translate(37.503 12.908)" fill="#121e11"></path>
    <path d="M51.829,25.71q-.895.81-1.9,1.789t-2.043,1.9c-.691.617-1.275,1.128-1.76,1.535a10.347,10.347,0,0,1-1.594,1.24,15.009,15.009,0,0,1-2.182,1.157,16.406,16.406,0,0,1-2.545.856,11.276,11.276,0,0,1-2.684.328,10.5,10.5,0,0,1-5.063-1.06,7.677,7.677,0,0,1-2.991-2.882,12.105,12.105,0,0,1-1.453-4.2,30.539,30.539,0,0,1-.393-5v-.561a18.945,18.945,0,0,1,.67-4.866,13.717,13.717,0,0,1,2.182-4.585,11.774,11.774,0,0,1,4-3.41,12.881,12.881,0,0,1,6.177-1.343,5.106,5.106,0,0,1,2.825.812,7.369,7.369,0,0,1,2.126,2.1,10.825,10.825,0,0,1,1.343,2.825,10.3,10.3,0,0,1,.475,3.047,6.505,6.505,0,0,1-.28,1.763,8.281,8.281,0,0,1-.756,1.816,6.423,6.423,0,0,1-1.033,1.4,1.619,1.619,0,0,1-1.119.558,5.135,5.135,0,0,1-1.931-.39,12.1,12.1,0,0,1-1.845-.924c-.579-.351-1.128-.717-1.65-1.089s-.968-.691-1.34-.951a.811.811,0,0,1-.337-.726,2.181,2.181,0,0,1,.307-1.092.887.887,0,0,1,.756-.531.338.338,0,0,1,.224.056A4.5,4.5,0,0,0,40.7,16.623a1.313,1.313,0,0,0,1.314-.895,5.813,5.813,0,0,0,.366-2.182,5.311,5.311,0,0,0-.171-1.287A4.329,4.329,0,0,0,41.678,11a3.068,3.068,0,0,0-.98-.977,3.616,3.616,0,0,0-1.512-.5,3.113,3.113,0,0,0-2.067,1.4,10.792,10.792,0,0,0-1.482,3.02,21.491,21.491,0,0,0-.868,3.865,29.534,29.534,0,0,0-.278,3.927,13.311,13.311,0,0,0,1.4,6.572,5.063,5.063,0,0,0,4.81,2.468,4.941,4.941,0,0,0,2.518-.921,28.891,28.891,0,0,0,2.991-2.211q1.537-1.284,3.047-2.684t2.74-2.347l1.231,1.845C52.892,24.751,52.422,25.17,51.829,25.71Z" transform="translate(53.146 12.908)" fill="#121e11"></path>
    <path d="M59.439,28.274c-.8.856-1.659,1.7-2.572,2.515a16.356,16.356,0,0,1-2.908,2.1,6.36,6.36,0,0,1-3.162.868,2.7,2.7,0,0,1-2.291-1.119,8.013,8.013,0,0,1-1.119-3.859q-.673,1.231-1.287,2.182a7.437,7.437,0,0,1-1.4,1.621,5.14,5.14,0,0,1-1.875,1.007,9.564,9.564,0,0,1-2.769.337,4.339,4.339,0,0,1-2.067-.475,4.7,4.7,0,0,1-1.512-1.258,5.9,5.9,0,0,1-.951-1.789,6.678,6.678,0,0,1-.337-2.126q0-.673.03-2.321t.056-3.747q.027-2.1.083-4.449t.112-4.387q.058-2.042.086-3.581t.083-2.04c0-.3.328-.523.98-.67a10.114,10.114,0,0,1,2.265-.224,14.133,14.133,0,0,1,2.6.224c.8.148,1.2.354,1.2.614V24.637a12.8,12.8,0,0,0,.168,2.294c.112.6.316.895.614.895A2.9,2.9,0,0,0,46.1,26.093a14.1,14.1,0,0,0,1.4-4.529,48.053,48.053,0,0,0,.531-6.4q.084-3.609.083-7.411a.743.743,0,0,1,.475-.644,3.225,3.225,0,0,1,1.092-.337c.407-.053.8-.092,1.175-.109s.632-.03.782-.03.39.009.726.03a5.22,5.22,0,0,1,1.033.165,2.569,2.569,0,0,1,.924.449,1.045,1.045,0,0,1,.393.868q-.341,8.888-.534,13.729t-.195,6.292c0,.151.038.224.112.224a2.826,2.826,0,0,0,1.175-.531q.837-.531,1.816-1.231t1.9-1.37a8.854,8.854,0,0,1,1.429-.895L61.648,26.2A19.383,19.383,0,0,0,59.439,28.274Z" transform="translate(68.714 12.945)" fill="#121e11"></path>
    <path d="M65.8,20.035a12.4,12.4,0,0,1-1.624,2.123A8.8,8.8,0,0,1,62,23.838a5.625,5.625,0,0,1-2.737.67,3.551,3.551,0,0,1-2.492-.951,8.23,8.23,0,0,1-1.7-2.211,10.913,10.913,0,0,1-.98-2.486,8.47,8.47,0,0,1-.307-1.792A11.849,11.849,0,0,1,54.03,14.3a5.5,5.5,0,0,1,1.2-2.1c0-.035-.035-.053-.109-.053a3.2,3.2,0,0,0-2.994,1.789,14.428,14.428,0,0,0-1.426,4.7,57.911,57.911,0,0,0-.585,6.6q-.142,3.689-.422,7.493l-.056.729c0,.148-.156.26-.475.334a8.174,8.174,0,0,1-1.089.168c-.41.038-.8.056-1.175.056h-.782c-.151,0-.372-.009-.67-.027a7.556,7.556,0,0,1-.895-.112,2.4,2.4,0,0,1-.782-.28.591.591,0,0,1-.337-.531l-.056-16.947c0-.744-.012-1.724-.027-2.935s-.03-2.769-.03-4.671a1.563,1.563,0,0,1,1.007-1.482,5.316,5.316,0,0,1,2.291-.475,6.906,6.906,0,0,1,1.373.142,5.176,5.176,0,0,1,1.228.39,2.855,2.855,0,0,1,.868.614,1.186,1.186,0,0,1,.337.812c0,.523-.012,1.054-.03,1.594s-.027,1.11-.027,1.707l.446-.782c.337-.6.679-1.166,1.033-1.707A5.59,5.59,0,0,1,54.954,7a9.252,9.252,0,0,1,2.74-.337,4.36,4.36,0,0,1,2.07.475A4.757,4.757,0,0,1,61.272,8.4a5.926,5.926,0,0,1,.954,1.819,6.837,6.837,0,0,1,.334,2.1,15.291,15.291,0,0,1-.251,2.657,8.774,8.774,0,0,1-.895,2.628,5.675,5.675,0,0,1-1.763,1.987,4.862,4.862,0,0,1-2.852.782h-.056a2.481,2.481,0,0,0,.449.951,2.889,2.889,0,0,0,.753.617,2.608,2.608,0,0,0,1.317.278,4.7,4.7,0,0,0,2.991-1.033,10.184,10.184,0,0,0,2.238-2.462A16.535,16.535,0,0,0,66,15.81c.393-.986.7-1.78.921-2.377v4.588Q66.473,18.916,65.8,20.035Z" transform="translate(84.582 12.796)" fill="#121e11"></path>
</svg>