<svg xmlns="http://www.w3.org/2000/svg" width="24" height="20" viewBox="0 0 24 20">
  <path id="Path_39" data-name="Path 39" d="M46,21.9a13.876,13.876,0,0,0,14-14v-1c.933-.667,1.333-2.067,2-3a13.218,13.218,0,0,1-3,1,5.725,5.725,0,0,0,2-3c-.933.533-1.933,1.733-3,2-.933-1.067-1.667-2-3-2a5.127,5.127,0,0,0-5,5c0,.4-.133.733,0,1a13.315,13.315,0,0,1-10-5c-.4.667-1,1.067-1,2,0,1.733.8,4.067,2,5-.8,0-1.333-.6-2-1h0a5.091,5.091,0,0,0,4,5c-.4.133-.467,0-1,0-.267,0-.733.133-1,0a3.855,3.855,0,0,0,4,3,9.569,9.569,0,0,1-6,2c-.4,0-.6.133-1,0a14.372,14.372,0,0,0,8,3" transform="translate(-38 -1.9)" fill="#fff" fill-rule="evenodd"/>
</svg>
